<?xml version="1.0" encoding="UTF-8"?>
<svg width="500px" height="500px" viewBox="0 0 500 500" version="1.1" xmlns="http://www.w3.org/2000/svg" xmlns:xlink="http://www.w3.org/1999/xlink">
    <!-- Generator: Sketch 48.2 (47327) - http://www.bohemiancoding.com/sketch -->
    <title>hover copy</title>
    <desc>Created with Sketch.</desc>
    <defs></defs>
    <g id="Page-1" stroke="none" stroke-width="1" fill="none" fill-rule="evenodd">
        <g id="hover-copy">
            <path d="M277,473 C277,487.912 264.912,500 250,500 C235.088,500 223,487.912 223,473 C223,458.088 235.088,446 250,446 C264.912,446 277,458.088 277,473" id="oval-start" fill="#1E1F1C"></path>
            <path d="M250,427 C277,427 277,398.911688 277,384 C277,369.088312 292.242188,333 250,333 C207.757812,333 223,369.088312 223,384 C223,398.911688 223,427 250,427 Z" id="oval-mid" fill="#1E1F1C"></path>
            <path d="M314,250 C314,285.347 285.347,314 250,314 C214.653,314 186,285.347 186,250 C186,214.653 214.653,186 250,186 C285.347,186 314,214.653 314,250" id="oval-hover" fill="#1E1F1C"></path>
            <path d="M262,248.363636 L262,251.636364 C262,252.539773 261.267045,253.272727 260.363636,253.272727 L253.272727,253.272727 L253.272727,260.363636 C253.272727,261.267045 252.539773,262 251.636364,262 L248.363636,262 C247.460227,262 246.727273,261.267045 246.727273,260.363636 L246.727273,253.272727 L239.636364,253.272727 C238.732955,253.272727 238,252.539773 238,251.636364 L238,248.363636 C238,247.460227 238.732955,246.727273 239.636364,246.727273 L246.727273,246.727273 L246.727273,239.636364 C246.727273,238.732955 247.460227,238 248.363636,238 L251.636364,238 C252.539773,238 253.272727,238.732955 253.272727,239.636364 L253.272727,246.727273 L260.363636,246.727273 C261.267045,246.727273 262,247.460227 262,248.363636 Z" id="plus" fill="#FFFDF4"></path>
            <path d="M262,250 C262,256.627 256.627,262 250,262 C243.373,262 238,256.627 238,250 C238,243.373 243.373,238 250,238 C256.627,238 262,243.373 262,250" id="plus-start" fill="#FFFDF4"></path>
        </g>
    </g>
</svg>