<?xml version="1.0" encoding="UTF-8"?>
<svg width="500px" height="500px" viewBox="0 0 500 500" version="1.1" xmlns="http://www.w3.org/2000/svg" xmlns:xlink="http://www.w3.org/1999/xlink">
    <!-- Generator: Sketch 48.2 (47327) - http://www.bohemiancoding.com/sketch -->
    <title>hover</title>
    <desc>Created with Sketch.</desc>
    <defs></defs>
    <g id="Page-1" stroke="none" stroke-width="1" fill="none" fill-rule="evenodd">
        <g id="hover">
            <path d="M314,250 C314,285.347 285.347,314 250,314 C214.653,314 186,285.347 186,250 C186,214.653 214.653,186 250,186 C285.347,186 314,214.653 314,250" id="Page-1" fill="#000000"></path>
            <path d="M262,248.363636 L262,251.636364 C262,252.539773 261.267045,253.272727 260.363636,253.272727 L253.272727,253.272727 L253.272727,260.363636 C253.272727,261.267045 252.539773,262 251.636364,262 L248.363636,262 C247.460227,262 246.727273,261.267045 246.727273,260.363636 L246.727273,253.272727 L239.636364,253.272727 C238.732955,253.272727 238,252.539773 238,251.636364 L238,248.363636 C238,247.460227 238.732955,246.727273 239.636364,246.727273 L246.727273,246.727273 L246.727273,239.636364 C246.727273,238.732955 247.460227,238 248.363636,238 L251.636364,238 C252.539773,238 253.272727,238.732955 253.272727,239.636364 L253.272727,246.727273 L260.363636,246.727273 C261.267045,246.727273 262,247.460227 262,248.363636 Z" id="plus" fill="#FFFDF4"></path>
        </g>
    </g>
</svg>