<?xml version="1.0" encoding="UTF-8"?>
<svg width="798px" height="798px" viewBox="0 0 798 798" version="1.1" xmlns="http://www.w3.org/2000/svg" xmlns:xlink="http://www.w3.org/1999/xlink">
    <!-- Generator: Sketch 42 (36781) - http://www.bohemiancoding.com/sketch -->
    <title>Page 1</title>
    <desc>Created with Sketch.</desc>
    <defs>
        <path d="M257.406572,159.172759 C213.948252,180.419049 158.308884,185.883629 96.2640349,159.25125 C48.1111431,137.830094 13.1129874,103.275066 0.0417103516,89.0860336 C13.1129874,74.8960078 48.1111431,40.3419735 96.2640349,18.9198235 C158.308884,-7.71255584 213.948252,-2.24797512 257.406572,18.9983147 C305.452159,40.4234454 340.453296,74.9138919 353.541463,89.0860336 C340.453296,103.258175 305.452159,137.747628 257.406572,159.172759 L257.406572,159.172759 Z" id="path-1"></path>
    </defs>
    <g id="Page-1" stroke="none" stroke-width="1" fill="none" fill-rule="evenodd">
        <g id="statico" transform="translate(26.000000, 16.000000)">
            <polygon id="rombo" stroke="#1E1E1C" stroke-width="19.705" points="367.59098 0.793181714 746.175146 387.02478 367.59098 765.608945 0.479453772 383.20156"></polygon>
            <path d="M370.444088,519.714934 C265.707946,519.714934 188.386116,438.47649 187.616107,437.655809 L174.139458,450.256139 C177.492723,453.83991 257.534921,538.162365 370.444088,538.162365 C483.348287,538.162365 563.395453,453.844878 566.753686,450.247197 L553.272068,437.655809 C552.511001,438.47649 475.180229,519.714934 370.444088,519.714934" id="palpebra-inf" fill="#1E1E1C"></path>
            <path d="M370.444088,265.340688 C265.707946,265.340688 188.386116,346.578139 187.616107,347.39882 L174.139458,334.799484 C177.492723,331.215712 257.534921,246.892264 370.444088,246.892264 C483.348287,246.892264 563.395453,331.210744 566.753686,334.808426 L553.272068,347.39882 C552.511001,346.578139 475.180229,265.340688 370.444088,265.340688" id="palpebra-sup" fill="#1E1E1C"></path>
            <path d="M451.063643,461.162746 C407.605323,482.409036 351.965956,487.873617 289.921106,461.241238 C241.768214,439.820081 206.770059,405.265053 193.698782,391.076021 C206.770059,376.885995 241.768214,342.331961 289.921106,320.909811 C351.965956,294.277432 407.605323,299.742012 451.063643,320.988302 C499.109231,342.413433 534.110367,376.903879 547.198535,391.076021 C534.110367,405.248163 499.109231,439.737616 451.063643,461.162746 L451.063643,461.162746 Z M571.414576,391.076021 L571.890491,390.48684 C571.890491,390.48684 571.532809,390.476904 570.917796,390.462001 L567.191945,385.861817 C565.748302,384.068441 549.92387,364.849014 523.293478,343.615641 L560.167475,292.873531 L545.242215,282.025842 L508.548052,332.523535 C493.587023,321.901384 476.14905,311.446151 456.602741,303.00089 L475.037256,246.25867 L457.488003,240.558616 L439.385338,296.304294 C420.937907,289.939548 400.925618,285.627497 379.681316,284.635924 L379.668399,228.239464 L361.219975,228.239464 L361.224943,284.635924 C339.976666,285.622529 319.969345,289.935574 301.520921,296.304294 L283.404345,240.571532 L265.860061,246.27258 L284.299543,302.996915 C264.758202,311.446151 247.305325,321.906352 232.339329,332.52751 L195.650134,282.048694 L180.729841,292.896383 L217.594896,343.619615 C190.978414,364.853982 175.15895,384.072416 173.710339,385.861817 L169.967598,390.48684 L169.015767,390.48684 L169.491683,391.076021 L169.015767,391.664209 L169.967598,391.664209 L173.710339,396.289231 C175.15895,398.078633 190.978414,417.29806 217.594896,438.531434 L232.339329,449.623539 C247.305325,460.244697 264.758202,470.704898 284.299543,479.154133 L301.520921,485.846754 C319.969345,492.216468 339.976666,496.528519 361.224943,497.515124 L379.681316,497.515124 C400.925618,496.523551 420.937907,492.2115 439.385338,485.846754 L456.602741,479.150159 C476.14905,470.704898 493.587023,460.249665 508.548052,449.628507 L523.293478,438.536401 C549.92387,417.301041 565.748302,398.083601 567.191945,396.289231 L570.917796,391.689048 C571.532809,391.674144 571.890491,391.664209 571.890491,391.664209 L571.414576,391.076021 Z" id="occhio" fill="#1E1E1C"></path>
        </g>
        <g id="Mask" transform="translate(219.657071, 317.989987)">
            <mask id="mask-2" fill="white">
                <use xlink:href="#path-1"></use>
            </mask>
            <g id="mask"></g>
            <path d="M279.775987,89.5568085 C279.775987,32.6839449 233.671224,-13.4217772 176.797402,-13.4217772 C119.924538,-13.4217772 73.8197747,32.6839449 73.8197747,89.5568085 C73.8197747,146.429672 119.924538,192.534436 176.797402,192.534436 C233.671224,192.534436 279.775987,146.429672 279.775987,89.5568085" id="pupilla" fill="#1E1E1C" mask="url(#mask-2)"></path>
        </g>
    </g>
</svg>