<?xml version="1.0" encoding="UTF-8"?>
<svg width="1440px" height="1024px" viewBox="0 0 1440 1024" version="1.1" xmlns="http://www.w3.org/2000/svg" xmlns:xlink="http://www.w3.org/1999/xlink">
    <!-- Generator: Sketch 48.2 (47327) - http://www.bohemiancoding.com/sketch -->
    <title>step-1</title>
    <desc>Created with Sketch.</desc>
    <defs></defs>
    <g id="Page-1" stroke="none" stroke-width="1" fill="none" fill-rule="evenodd">
        <g id="step-1" fill="#D8D8D8">
            <path d="M0,-1.35447209e-13 C24.3442519,144.070433 54.4034241,211.742308 90.1775167,203.015625 C143.838656,189.9256 103.184607,75.3984375 184.527045,75.3984375 C265.869483,75.3984375 184.527045,262.659176 253.153098,300.523437 C321.77915,338.387699 286.297411,223.143686 324.415139,223.143686 C362.532867,223.143686 326.9922,293.094743 378.435223,300.523437 C429.878245,307.952132 431.147134,85.375 475.475738,85.375 C519.804341,85.375 493.012328,203.015625 539.961207,203.015625 C586.910085,203.015625 581.86079,94.7561869 605.464143,101.460937 C629.067497,108.165688 609.421695,197.621348 655.005797,185.15625 C668.505558,181.464703 683.720628,24.4822753 720,6.43929354e-15 C741.809069,-14.7173337 732.380489,101.460938 775.895918,101.460937 C850.679688,101.460937 822.796875,175.945312 858.53125,175.945312 C894.265625,175.945312 905.724492,91.821893 955.594901,47.4140625 C1005.46531,3.006232 990.832666,169.339037 1030.43183,175.945312 C1070.03099,182.551588 1057.27727,59.3984375 1109.89254,59.3984375 C1162.50781,59.3984375 1157.66202,101.460937 1197.01563,101.460937 C1236.36923,101.460937 1239.28382,-34.0481152 1331.17807,75.3984375 C1392.4409,148.362806 1428.71488,123.229993 1440,-1.35447209e-13 L0,-1.35447209e-13 Z"></path>
        </g>
    </g>
</svg>