<?xml version="1.0" encoding="UTF-8"?>
<svg width="1440px" height="1024px" viewBox="0 0 1440 1024" version="1.1" xmlns="http://www.w3.org/2000/svg" xmlns:xlink="http://www.w3.org/1999/xlink">
    <!-- Generator: Sketch 48.2 (47327) - http://www.bohemiancoding.com/sketch -->
    <title>step-2</title>
    <desc>Created with Sketch.</desc>
    <defs></defs>
    <g id="Page-1" stroke="none" stroke-width="1" fill="none" fill-rule="evenodd">
        <g id="step-2" fill="#D8D8D8">
            <path d="M-20,0 C17.6775852,442.335645 54.4034241,659.140125 90.1775167,650.413442 C143.838656,637.323417 103.184607,532.524655 184.527045,532.524655 C265.869483,532.524655 184.527045,612.54918 253.153098,650.413442 C321.77915,688.277703 278.647897,573.435509 316.765625,573.435509 C354.883353,573.435509 326.9922,817.085692 378.435223,824.514387 C429.878245,831.943081 431.147134,698.623352 475.475738,698.623352 C519.804341,698.623352 493.012328,803.446122 539.961207,803.446122 C586.910085,803.446122 581.86079,587.524032 605.464143,594.228783 C629.067497,600.933534 609.421695,711.08845 655.005797,698.623352 C668.505558,694.931805 673.720628,638.451025 710,613.96875 C731.809069,599.251416 723.549071,532.524655 775.895918,532.524655 C827.6875,532.524655 806.084075,719.131823 834.410146,715.984375 C888.280357,709.998592 894.754591,617.84334 944.625,573.435509 C994.495409,529.027679 990.832666,493.340399 1030.43183,499.946675 C1070.03099,506.55295 1006.68829,793.837139 1109.89254,736.466088 C1213.09679,679.095038 1141.08762,550.510225 1235.70108,650.413442 C1330.31454,750.316658 1239.28382,880.537979 1331.17807,989.984532 C1392.4409,1062.9489 1428.71488,732.954056 1440,0 L-20,0 Z"></path>
        </g>
    </g>
</svg>