<?xml version="1.0" encoding="UTF-8"?>
<svg width="1440px" height="1024px" viewBox="0 0 1440 1024" version="1.1" xmlns="http://www.w3.org/2000/svg" xmlns:xlink="http://www.w3.org/1999/xlink">
    <!-- Generator: Sketch 48.2 (47327) - http://www.bohemiancoding.com/sketch -->
    <title>step-3</title>
    <desc>Created with Sketch.</desc>
    <defs></defs>
    <g id="Page-1" stroke="none" stroke-width="1" fill="none" fill-rule="evenodd">
        <g id="step-3" fill="#D8D8D8">
            <path d="M-19.9877329,0 C-20.779393,1242.5625 15.9461409,1856.91146 90.1888689,1843.04688 C201.552961,1822.25 103.195851,1321.76562 184.537614,1321.76562 C265.879376,1321.76562 184.537614,1598.27636 253.163096,1636.14063 C321.788579,1674.00489 286.307134,1366.70313 324.424546,1366.70313 C362.541957,1366.70313 327.001586,1781.43068 378.444181,1788.85938 C429.886777,1796.28807 431.155655,1282.46875 475.48389,1282.46875 C519.812126,1282.46875 493.020335,1939.17188 539.968824,1939.17188 C586.917312,1939.17188 581.868059,1359.99837 605.471217,1366.70313 C629.074374,1373.40788 609.428735,1716.0276 655.012459,1703.5625 C668.512107,1699.87095 683.727051,1346.2479 720.006122,1321.76562 C741.81501,1307.04829 761.623199,1823.35012 775.901576,1788.85938 C818.073798,1686.98845 806.089483,1250.64745 834.415318,1247.5 C888.285082,1241.51422 905.729072,1601.40783 955.599066,1557 C1005.46906,1512.59217 990.83654,1747.78435 1030.43537,1754.39062 C1070.03421,1760.9969 1006.69203,1489.5273 1109.89543,1432.15625 C1213.09882,1374.7852 1141.09024,1688.95616 1235.70292,1788.85938 C1330.31559,1888.76259 1158.48362,1429.23438 1331.17912,1636.14063 C1446.30945,1774.07813 1482.58312,1228.69792 1440.00014,0 L-19.9877329,0 Z"></path>
        </g>
    </g>
</svg>