<?xml version="1.0" encoding="UTF-8"?>
<svg width="868px" height="868px" viewBox="0 0 868 868" version="1.1" xmlns="http://www.w3.org/2000/svg" xmlns:xlink="http://www.w3.org/1999/xlink">
    <!-- Generator: Sketch 42 (36781) - http://www.bohemiancoding.com/sketch -->
    <title>Page 1</title>
    <desc>Created with Sketch.</desc>
    <defs></defs>
    <g id="Page-1" stroke="none" stroke-width="1" fill="none" fill-rule="evenodd">
        <g transform="translate(57.000000, 0.000000)">
            <polygon id="Fill-1" fill="#252121" points="377.8569 -0.0002 -0.0001 216.9438 -0.0001 652.2708 377.8569 867.7778 754.2779 652.2708 754.2779 216.9438"></polygon>
            <path d="M235.8068,250.5967 L235.8068,610.5717" id="Stroke-2" stroke="#FBF2E5" stroke-width="15.296"></path>
            <path d="M282.0891,250.5967 L282.0891,610.3077" id="Stroke-3" stroke="#FBF2E5" stroke-width="15.296"></path>
            <path d="M163.2648,556.7984 L354.7348,556.7984" id="Stroke-4" stroke="#FBF2E5" stroke-width="15.296"></path>
            <path d="M163.2101,602.6655 L354.6801,602.6655" id="Stroke-5" stroke="#FBF2E5" stroke-width="15.296"></path>
            <path d="M163.2326,303.5835 L354.7016,303.5835" id="Stroke-6" stroke="#FBF2E5" stroke-width="15.296"></path>
            <path d="M163.2326,257.7514 L354.7016,257.7514" id="Stroke-7" stroke="#FBF2E5" stroke-width="15.296"></path>
            <path d="M382.9914,250.5967 L382.9914,610.3077" id="Stroke-8" stroke="#FBF2E5" stroke-width="15.296"></path>
            <path d="M429.2219,250.5884 L429.2219,610.3004" id="Stroke-9" stroke="#FBF2E5" stroke-width="15.296"></path>
            <path d="M429.2805,366.9365 L496.7705,366.9365" id="Stroke-10" stroke="#FBF2E5" stroke-width="15.296"></path>
            <path d="M429.2209,412.7354 L496.7319,412.7354" id="Stroke-11" stroke="#FBF2E5" stroke-width="15.296"></path>
            <path d="M387.0246,304.6958 L603.2926,304.6958" id="Stroke-12" stroke="#FBF2E5" stroke-width="15.296"></path>
            <path d="M375.4289,257.7514 L603.2919,257.7514" id="Stroke-13" stroke="#FBF2E5" stroke-width="15.296"></path>
            <polygon id="Stroke-14" stroke="#FBF2E5" stroke-width="15.222" points="127.743 645.694 637.917 645.694 637.917 215.564 127.743 215.564"></polygon>
        </g>
    </g>
</svg>